<?xml version="1.0" encoding="utf-8"?>
<!-- Generator: Adobe Illustrator 22.0.0, SVG Export Plug-In . SVG Version: 6.00 Build 0)  -->
<svg version="1.1" id="Layer_1" xmlns="http://www.w3.org/2000/svg" xmlns:xlink="http://www.w3.org/1999/xlink" x="0px" y="0px"
	 viewBox="0 0 659 96" style="enable-background:new 0 0 659 96;" xml:space="preserve">
<style type="text/css">
	.st0{fill:#E4CEC9;}
</style>
<g>
	<path class="st0" d="M55,2.5c0,1-0.7,2.1-1.9,2.2c-0.1,0-0.2,0-0.3,0c0.2,0,0.3,0,0.3,0c-0.4,0.3-0.9,0.8-1.5,1.4
		c6.5-1.1,14.6-2,21-2c5.9,0,10.4,0.8,11.1,2.8C83.9,7.1,84,7.3,84,7.5c0,1.3-1.2,2.1-2.3,2.1c-0.7,0-1.4-0.4-1.7-1.3
		c-0.3-0.8-3.9-1.5-9.6-1.5c-3.6,0-8.1,0.3-13,1C56.6,8,49.6,9,49.2,9.4c-4.5,6.5-10.6,18.5-16,30.6c6.1-1.7,13.7-3.5,17.9-3.5
		c1.3,0,2.2,0.2,2.7,0.5c0.6,0.4,0.8,0.9,0.8,1.5c0,1.1-1,2.3-2.2,2.3c-0.4,0-0.8-0.1-1.1-0.4c-0.5-0.6-1.7-0.9-3.3-0.9
		c-4.1,0-10.9,1.8-16.2,3.6c-4.6,10.6-8.4,21-9.8,27.4c-0.7,3.2,0.7,6.1-2.3,6.8c-0.3,0.1-0.6,0.1-0.8,0.1c-1.3,0-1.8-0.9-1.8-2.3
		c0-2.4,1.6-6.2,1.9-7.4c0.3-2,0.4-3.9,0.4-5.8c0-15.6-9.7-25.5-13.6-28.8c-0.1,0-0.2,0-0.2,0c-1.7,0-2.1-1.9-1.9-3
		C3.6,17.6,30.3,10.3,46.8,7c1.2-1.9,2.2-3.4,3-4.4c0.5-1.2,0.2-1,1.5-1.4c0.7-0.5,1.4-0.7,2.2-0.6C54.5,0.8,55,1.6,55,2.5z
		 M28.3,44.4c-2.4,1-4,1.9-3.8,2.3c-0.3,0.1-0.5,0.1-0.7,0.1c-1.1,0-1.8-1-1.8-2c0-0.8,0.5-1.7,1.6-2c0,0,2.7-0.9,6.4-1.9
		C35,29.5,40.6,17.8,45,10.1c-10.4,2.2-21.7,5.4-29.2,9.7c-5.4,3.1-7.3,5.8-7.3,8.6c0,7.1,12.7,14.7,13.9,30.2
		C24.1,54.2,26.1,49.4,28.3,44.4z"/>
	<path class="st0" d="M103.1,4.3c0-0.2-0.1-0.1-0.3,0.4c0,0,0,0,0,0c0,0,0,0.1,0,0.1c-0.8,1.4-2.7,5.2-5.1,10.4
		c14.7-1.9,30.1-3.5,34.4-1.7c2.5,1,0.6,5.6-1.5,3.8c-3.6-3-19.3-2-33.8-0.1C88,35.8,74.2,67.9,79.1,68.3
		c3.3-0.1,16.8-20.4,23.1-29.4c2.4-0.8,3.3-0.3,1.9,2.2c-9.5,8.6-20.5,27.3-24.4,28.7c-10.4,2.2,3.5-30.7,13-51.2
		c-6.1,7.1-13.6,13.6-20.4,15.2c2,6.9-4.5,24.8-11.4,21.1c-6.4-3.4-0.5-17.6,3.6-19.3c0,0,2.6,1.1,2,3.4c-2.3,2.2-10.2,12-4,14.1
		c3.4,1.1,8.9-11.1,4.9-18.8c-0.1,0-0.1,0-0.2,0c-0.8-0.2-1.3-1.1-1.1-1.9c0.2-0.8,1.1-1.3,1.9-1.1c0.1,0,0.2,0,0.3,0
		c0.9-0.2,1.7-0.2,2.3,0.1c9-0.6,15.8-7,20.8-13.5c-8,1.2-15.1,2.7-18.7,3.8c2.1,0.4,4.3,0.2,6.5-1.2c2.9-0.2,3.7,4.4-7.9,3
		c-0.6,0.1-1.1-0.1-1.4-0.4c-2.6,0.2-3.1-3.8-0.4-4.1c4.5-0.5,13.6-1.9,23.5-3.2c1.4-2,2.7-4,3.8-5.8c2.1-4.3,3.5-7.1,3.5-7.1
		C101.3,1.1,104,2.6,103.1,4.3z"/>
	<path class="st0" d="M116.7,41.8c1.9,0,4.2-0.7,7.2-2.4c0.5-0.3,1-0.4,1.4-0.4c0.6,0,1,0.4,1,0.8c0,0.5-0.4,1.1-1.4,1.6
		c-3.1,1.5-5.6,2.3-8.1,2.3c-1.5,0-2.9-0.3-4.4-0.9c-1.6,5.4-6.1,12.5-9.8,12.5c-0.5,0-0.9-0.1-1.3-0.3c-2-1.1-2.8-3.3-2.8-5.8
		c0-5.4,3.6-12.4,6.4-13.5c-0.1-0.2-0.1-0.5-0.1-0.7c0-2.2,2.4-4.1,4.7-4.1c2.1,0,4,1.5,4,5.6c0,1.2-0.2,2.6-0.5,4.3
		C114,41.4,115.3,41.8,116.7,41.8z M100.4,50c0,1.4,0.6,2.5,2.3,3.1c0.2,0.1,0.3,0.1,0.5,0.1c2.7,0,5.6-7.4,6.1-12
		c-1-0.7-1.9-1.4-2.6-2.2C105,40.6,100.4,46.2,100.4,50z M109.2,35.1c-0.5,0.4-0.4,1.5,0.3,2.7C109.4,36.7,109.3,35.7,109.2,35.1z"
		/>
	<path class="st0" d="M122.7,49c0,0.3,0.1,0.5,0.3,0.5c1,0,4.5-3.5,12.3-13.6c0.4-1.1,1.1-1.7,1.9-1.7c0.9,0,1.9,1,1.9,3.2
		c0,0.4,0,0.8,0,1.1c0,3.3-0.3,5.4-0.3,6.5c0,0.6,0.1,0.9,0.4,0.9c0.9,0,3.4-2.2,9.8-5.8c1.6-0.9,2.8-1.3,3.6-1.3
		c1.1,0,1.6,0.6,1.6,1.4c0,1-0.7,2.1-1.8,2.3c-2.4,0.5-13.1,5.7-13.8,6.7c-1.2,1.7-1.4,19.2-14.8,33.6c-7.9,8.5-17.5,12.7-24,12.7
		c-4.4,0-7.3-1.9-7.3-5.6c0-6.9,10.1-20.2,39.7-39.5c2.5-1.6,3-2.6,3-4.4c0-0.9-0.1-1.9-0.2-3.3c-3.8,4.7-9.4,10-12.8,10
		c-1.6,0-2.8-1.3-2.8-4.4c0-5.9,8.9-19.8,15.8-19.8c1,0,2,0.3,2.8,1c0.3,0.1,0.4,0.5,0.4,1.1c0,1.3-0.9,3.2-2.9,3.2
		c-0.1,0-0.3,0-0.4,0l-1.1-0.1C128.7,35,122.7,46.6,122.7,49z M94.5,89.2c0,1.6,0.9,2.9,2.9,3.6c0.8,0.3,1.7,0.4,2.6,0.4
		c8.1,0,20.7-9.4,25-15.3c5.2-7.2,8.6-16.9,9.3-25.6l-0.4-0.4C127.7,53.9,94.5,79.1,94.5,89.2z"/>
	<path class="st0" d="M154.9,31.8c1.3,0,2.6,0.8,2.6,2c0,0.2,0,0.4-0.1,0.7c-0.8-0.1-3.7,5.9-5.2,11.1c2.1-4.5,5.4-9.7,8.4-10.4
		c0.2,0,0.3,0,0.5,0c3.8,0,5.3,5.6,8.3,7.1c0.6,0.3,1.1,0.6,1.7,0.6c1,0,2.3-0.9,4.7-3.9c0.4-0.3,0.8-0.4,1.1-0.4
		c0.9,0,1.3,1.1,1.3,1.9c0,0.4-0.1,0.7-0.3,0.8c-2.7,2.3-4.6,3-6.1,3c-1.2,0-2.3-0.4-3.3-0.9c-3.9-1.6-6-5.9-7.8-5.9
		c-3.4,0-5.6,16.2-10.2,18c-0.2,0-0.4,0.1-0.6,0.1c-1.1,0-1.9-0.7-2.2-2.3c0-0.1,0-0.2,0-0.3c0-0.2,0-0.4,0-0.6
		c0-5.3,5.2-18.9,5.1-19.1C153,32.2,153.9,31.8,154.9,31.8z"/>
	<path class="st0" d="M190.3,32.9c0,1.1-1,1.9-2.1,1.9c-0.5,0-1-0.1-1.5-0.5c-0.2-0.2-0.5-0.2-0.7-0.2c-3.6,0-10.8,13-10.8,15.3
		c0,0.2,0.1,0.3,0.2,0.3c0.1,0,0.3-0.1,0.5-0.2c3.5-2.6,9.6-11.6,11.4-13.4c0.4-0.4,0.9-0.6,1.4-0.6c1.1,0,2.2,0.9,2.2,2
		c0,0.3-0.1,0.5-0.2,0.8c-2.1,4.2-2.8,7.6-2.8,9.7c0,1.7,0.4,2.6,1.1,2.6c0,0,0.1,0,0.1,0c2.6-0.3,9.2-4,13-10.7
		c0.4-0.6,0.8-0.9,1.3-0.9c0.7,0,1.4,0.7,1.4,1.7c0,0.5-0.2,1.1-0.7,1.5c-3.1,3.1-9.8,10.2-14.8,10.2c-0.4,0-0.8,0-1.2-0.1
		c-1.9-0.5-3.4-1.8-3.4-5c0-1.1,0.2-2.4,0.6-4c-2.4,3-6.7,9.1-10.5,9.1c-0.6,0-1.1-0.1-1.6-0.4c-1.2-0.7-1.7-1.8-1.7-3.3
		c0-6.4,9.4-18.4,15.6-18.4c1.1,0,2.1,0.4,2.9,1.2C190.1,31.9,190.3,32.4,190.3,32.9z"/>
	<path class="st0" d="M224.6,38.6c0.8,0,1.2,0.5,1.2,1.2c0,0.6-0.3,1.3-0.9,1.9c-0.2,0.2-11.9,8.2-24.3,12.1
		c1.6,1.9,2.5,6.9,2.5,12.5c0,10.3-2.9,22.9-9,22.9c-0.4,0-0.9-0.1-1.3-0.2c-1.5-0.4-2.5-2.8-2.5-7c0-5.6,1.6-14.4,5.8-26.3
		c-1.2-0.2-1.8-1.2-1.8-2.2c0-0.8,0.4-1.6,1.4-1.8c0.6,0,1.3-0.1,1.9-0.1c1.5-4,3.1-8.1,4.9-12c-0.3,0.1-0.5,0.1-0.7,0.1
		c-1.1,0-1.8-0.8-1.8-1.7c0-0.7,0.4-1.4,1.4-1.8c1.2-0.4,2.3-1,3.5-1.7c4.5-9.2,9.2-16.7,12.9-18.8c0.7-0.4,1.3-0.6,1.9-0.6
		c1.4,0,2.5,1,2.5,2.8c0,0.6-0.1,1.4-0.4,2.2c-1.9,5.5-9,14.1-16,17.9c-2.1,4.1-4.1,8.6-5.9,13.1c11.4-2.1,21.9-9.1,23.6-12.4
		C223.8,38.7,224.3,38.6,224.6,38.6z M193.7,81.2c0,1.5,0.1,2.8,0.4,3.7c0.4,1.3,0.9,1.8,1.4,1.8c2.4,0,5.6-12.6,5.6-21.8
		c0-4.6-0.8-8.4-3-9.2C197.4,57.5,193.7,72.9,193.7,81.2z M209.2,31.7c4.9-3.8,8.9-8.6,9.8-11.9C216.1,21.4,212.6,25.9,209.2,31.7z"
		/>
	<path class="st0" d="M218,53.2c0-3.8,3.1-9.6,3.8-13.2c0.4-2,2-3,3.3-3c1,0,1.9,0.6,1.9,2c0,0.6-0.2,1.3-0.5,2.1c-1,2.2-5,9.8-5,13
		c0,0.6,0.1,1,0.4,1.2c0.3,0.3,0.7,0.5,1.2,0.5c3.7,0,11.9-15.7,13.1-16.5c0.4-0.3,0.9-0.4,1.3-0.4c0.9,0,1.7,0.6,1.7,1.3
		c0,0.5-0.3,1.1-1.2,1.8c-5.7,4-11.2,15.5-15.5,15.5c-1.1,0-2.2-0.4-3.3-1.4C218.3,55.5,218,54.5,218,53.2z M230.4,21.9
		c1.6,0,2.9,1.9,2.9,3.6c0,0.7-0.2,1.3-0.7,1.7c-0.4,0.3-4.4,5.1-6.1,5.1c-0.5,0-0.8-0.4-0.8-1.4c0-0.8,0.2-1.9,0.7-3.5
		C227.5,23.3,229.1,21.9,230.4,21.9z"/>
	<path class="st0" d="M250.9,32.9c0,1.1-1,1.9-2.1,1.9c-0.5,0-1-0.1-1.5-0.5c-0.2-0.2-0.5-0.2-0.7-0.2c-3.6,0-10.8,13-10.8,15.3
		c0,0.2,0.1,0.3,0.2,0.3c0.1,0,0.3-0.1,0.5-0.2c3.5-2.6,9.6-11.6,11.4-13.4c0.4-0.4,0.9-0.6,1.4-0.6c1.1,0,2.2,0.9,2.2,2
		c0,0.3-0.1,0.5-0.2,0.8c-2.1,4.2-2.8,7.6-2.8,9.7c0,1.7,0.4,2.6,1.1,2.6c0,0,0.1,0,0.1,0c2.6-0.3,9.2-4,13-10.7
		c0.4-0.6,0.8-0.9,1.3-0.9c0.7,0,1.4,0.7,1.4,1.7c0,0.5-0.2,1.1-0.7,1.5c-3.1,3.1-9.8,10.2-14.8,10.2c-0.4,0-0.8,0-1.2-0.1
		c-1.9-0.5-3.4-1.8-3.4-5c0-1.1,0.2-2.4,0.6-4c-2.4,3-6.7,9.1-10.5,9.1c-0.6,0-1.1-0.1-1.6-0.4c-1.2-0.7-1.7-1.8-1.7-3.3
		c0-6.4,9.4-18.4,15.6-18.4c1.1,0,2.1,0.4,2.9,1.2C250.7,31.9,250.9,32.4,250.9,32.9z"/>
	<path class="st0" d="M304.7,38.6c0.8,0,1.2,0.5,1.2,1.2c0,0.6-0.3,1.3-0.9,1.9c-0.2,0.2-11.9,8.2-24.3,12.1
		c1.6,1.9,2.5,6.9,2.5,12.5c0,10.3-2.9,22.9-9,22.9c-0.4,0-0.9-0.1-1.3-0.2c-1.5-0.4-2.5-2.8-2.5-7c0-5.6,1.6-14.4,5.8-26.3
		c-1.2-0.2-1.8-1.2-1.8-2.2c0-0.8,0.4-1.6,1.4-1.8c0.6,0,1.3-0.1,1.9-0.1c1.5-4,3.1-8.1,4.9-12c-0.3,0.1-0.5,0.1-0.7,0.1
		c-1.1,0-1.8-0.8-1.8-1.7c0-0.7,0.4-1.4,1.4-1.8c1.2-0.4,2.3-1,3.5-1.7c4.5-9.2,9.2-16.7,12.9-18.8c0.7-0.4,1.3-0.6,1.9-0.6
		c1.4,0,2.5,1,2.5,2.8c0,0.6-0.1,1.4-0.4,2.2c-1.9,5.5-9,14.1-16,17.9c-2.1,4.1-4.1,8.6-5.9,13.1c11.4-2.1,21.9-9.1,23.6-12.4
		C304,38.7,304.4,38.6,304.7,38.6z M273.8,81.2c0,1.5,0.1,2.8,0.4,3.7c0.4,1.3,0.9,1.8,1.4,1.8c2.4,0,5.6-12.6,5.6-21.8
		c0-4.6-0.8-8.4-3-9.2C277.5,57.5,273.8,72.9,273.8,81.2z M289.3,31.7c4.9-3.8,8.9-8.6,9.8-11.9C296.2,21.4,292.7,25.9,289.3,31.7z"
		/>
	<path class="st0" d="M310.6,31.8c1.6,0,2.5,1.2,2.5,3.1c0,3.6-3.2,9.4-10.4,13.2c-0.3,1-0.5,1.8-0.5,2.5c0,1.6,0.8,2.4,2.3,2.4
		c3.5,0,10.8-4.7,18.7-13.4c0.4-0.5,0.9-0.7,1.3-0.7c0.9,0,1.6,0.9,1.6,1.8c0,0.5-0.2,1.1-0.8,1.6c-2.1,1.2-14.5,13.3-21.6,13.3
		c-1,0-1.9-0.2-2.6-0.8c-1.7-1.2-2.4-3.1-2.4-5.2c0-7,7.4-17,11.3-17.7C310.2,31.9,310.4,31.8,310.6,31.8z M310.5,35.7
		c0-0.1,0-0.2-0.1-0.2c-0.1,0-0.2,0-0.3,0.2c-0.3,0.3-2.9,3.3-5.3,7.8C307.7,42.6,310.5,36.9,310.5,35.7z"/>
	<path class="st0" d="M364.4,1c1,0.1,1.8,0.6,1.8,1.3c0,0.3-0.2,0.7-0.6,1c-0.1,0.2-0.4,0.4-0.8,0.5c-2.5,1.3-5.6,7.6-6.9,10
		c10.6-1.3,21.8-2.4,28.8-2.4c2.9,0,5.1,0.2,6.2,0.6c0.8,0.3,1.2,1.1,1.2,1.8c0,1.2-0.8,2.4-1.8,2.4c-0.3,0-0.6-0.1-1-0.4
		c-1.6-1.3-5.8-1.9-11.2-1.9c-6.6,0-15.2,0.8-23.2,1.9c-6.6,13.2-17.1,40.9-17.1,52.2c0,0.7,0,1.3,0.1,1.9l1,5.1
		c-0.1,0.7-0.6,1-1.2,1c-0.9,0-2.1-0.7-2.7-1.6c-0.6-0.9-0.8-2.2-0.8-4c0-11.3,10.9-39.1,17.8-54.1l-1.1,0.2
		c-10.8,14.6-24.9,37.9-31.1,37.9c-0.9,0-1.6-0.5-2.2-1.6c-0.3-0.6-0.4-1.3-0.4-2.2c0-4.4,3.5-11.8,5.3-15.1
		c0.6-1.1,1.9-1.5,3.1-1.5c1.2,0,2.2,0.5,2.2,1.3c0,0.4-0.2,0.8-0.6,1.3c-2.4,2.6-7,11.1-7,14.3c0,0.5,0.1,0.8,0.3,1.1
		c0.1,0.1,0.2,0.1,0.3,0.1c2.9,0,17.4-20.9,27.4-35.1c-7,1.1-13,2.4-16.3,3.4c0.6,0.1,1.2,0.2,1.8,0.2c1.5,0,3.1-0.4,4.7-1.4
		c0.1,0,0.1,0,0.2,0c0.9,0,1.6,0.5,1.6,1.1c0,0.9-1.5,2.1-5.8,2.1c-1.1,0-2.4-0.1-3.9-0.3c-0.1,0-0.2,0-0.3,0c-2,0-3.3-1.5-3.3-2.8
		c0-0.8,0.6-1.5,1.8-1.7c0.1,0,9.6-1.5,21.2-3C355,10,358,6,360.2,3.6c0.7-1.3,1.2-2.1,1.6-2.5C362.5,0.3,363.6,0.5,364.4,1z
		 M334.2,27.6c0,0.2,0,0.3-0.1,0.4c-0.9,0.1-3.5,3.7-5,3.7c-0.7,0-1.3-0.8-1.3-3.3c0-3.2,1.1-4.4,2.4-4.4
		C332,24.1,334.2,26.3,334.2,27.6z M354.9,14.3c0.2-0.4,0.4-0.8,0.5-1.1c-0.3,0.4-0.6,0.8-0.9,1.2L354.9,14.3z"/>
	<path class="st0" d="M370.8,32.9c0,1.1-1,1.9-2.1,1.9c-0.5,0-1-0.1-1.5-0.5c-0.2-0.2-0.5-0.2-0.7-0.2c-3.6,0-10.8,13-10.8,15.3
		c0,0.2,0.1,0.3,0.2,0.3c0.1,0,0.3-0.1,0.5-0.2c3.5-2.6,9.6-11.6,11.4-13.4c0.4-0.4,0.9-0.6,1.4-0.6c1.1,0,2.2,0.9,2.2,2
		c0,0.3-0.1,0.5-0.2,0.8c-2.1,4.2-2.8,7.6-2.8,9.7c0,1.7,0.4,2.6,1.1,2.6c0,0,0.1,0,0.1,0c2.6-0.3,9.2-4,13-10.7
		c0.4-0.6,0.8-0.9,1.3-0.9c0.7,0,1.4,0.7,1.4,1.7c0,0.5-0.2,1.1-0.7,1.5c-3.1,3.1-9.8,10.2-14.8,10.2c-0.4,0-0.8,0-1.2-0.1
		c-1.9-0.5-3.4-1.8-3.4-5c0-1.1,0.2-2.4,0.6-4c-2.4,3-6.7,9.1-10.5,9.1c-0.6,0-1.1-0.1-1.6-0.4c-1.2-0.7-1.7-1.8-1.7-3.3
		c0-6.4,9.4-18.4,15.6-18.4c1.1,0,2.1,0.4,2.9,1.2C370.6,31.9,370.8,32.4,370.8,32.9z"/>
	<path class="st0" d="M412.2,30c0,0.9-0.6,1.8-1.7,2c-0.9,1.1-1.8,2.4-2.7,3.9c0,0-1.3,2.4-2.6,5.1c3.8-4.8,7.9-9,11-10.4
		c1.1-0.5,2.6-0.9,4-0.9c1.6,0,3.1,0.6,3.6,2.2c0.3,0.9,0.4,2,0.4,3.1c0,2.3-0.5,4.8-1.5,7.3c4.3-1.1,7.8-2,8.5-3
		c0.2-0.3,0.5-0.5,0.8-0.5c0.5,0,1.1,0.5,1.1,1c0,0.2-0.1,0.4-0.2,0.6c-0.5,1.2-5.5,2.4-11,3.9c-3,6.5-8.5,12.4-13.5,12.4
		c-0.4,0-0.8,0-1.2-0.1c-2.3-0.4-3.3-1.6-3.3-3.3c0-0.7,0.2-1.5,0.6-2.4c1.5-3.5,7.8-5.8,13.9-7.5c1.5-3.3,3.1-7.1,3.1-10
		c0-0.8-0.1-1.5-0.4-2.1c-0.2-0.3-0.5-0.4-1-0.4c-3.6,0-13.4,10.4-19.2,19.4c-3,5.8-9.3,20.9-11.3,29.1c0.4,0.7,0.6,1.7,0.6,2.6
		c0,2.9-1.5,6.3-1.6,6.7c-0.4,1-1.4,1.6-2.3,1.6c-0.7,0-1.2-0.4-1.2-1.2c0-0.2,0-0.3,0.1-0.5c-0.2-4.8,3.7-16.7,8.3-28.7
		c-0.1-0.4,0-0.9,0.2-1.4c0.2-0.6,0.8-1.6,1.5-2.9c5.1-12.8,10.7-24.7,12.6-26.5c0.8-0.8,1.6-1.2,2.4-1.2c0.1,0,0.3,0,0.4,0
		C411.6,28.2,412.2,29.1,412.2,30z M408.1,54.1c3.5,0,7.9-6.1,9-8.3c-4.5,1.5-11.8,3.6-11.1,7.3C406.6,53.8,407.3,54.1,408.1,54.1z"
		/>
	<path class="st0" d="M445.7,32.9c0,1.1-1,1.9-2.1,1.9c-0.5,0-1-0.1-1.5-0.5c-0.2-0.2-0.5-0.2-0.7-0.2c-3.6,0-10.8,13-10.8,15.3
		c0,0.2,0.1,0.3,0.2,0.3c0.1,0,0.3-0.1,0.5-0.2c3.5-2.6,9.6-11.6,11.4-13.4c0.4-0.4,0.9-0.6,1.4-0.6c1.1,0,2.2,0.9,2.2,2
		c0,0.3-0.1,0.5-0.2,0.8c-2.1,4.2-2.8,7.6-2.8,9.7c0,1.7,0.4,2.6,1.1,2.6c0,0,0.1,0,0.1,0c2.6-0.3,9.2-4,13-10.7
		c0.4-0.6,0.8-0.9,1.3-0.9c0.7,0,1.4,0.7,1.4,1.7c0,0.5-0.2,1.1-0.7,1.5c-3.1,3.1-9.8,10.2-14.8,10.2c-0.4,0-0.8,0-1.2-0.1
		c-1.9-0.5-3.4-1.8-3.4-5c0-1.1,0.2-2.4,0.6-4c-2.4,3-6.7,9.1-10.5,9.1c-0.6,0-1.1-0.1-1.6-0.4c-1.2-0.7-1.7-1.8-1.7-3.3
		c0-6.4,9.4-18.4,15.6-18.4c1.1,0,2.1,0.4,2.9,1.2C445.5,31.9,445.7,32.4,445.7,32.9z"/>
	<path class="st0" d="M461.7,31.8c1.3,0,2.6,0.8,2.6,2c0,0.2,0,0.4-0.1,0.7c-0.8-0.1-3.7,5.9-5.2,11.1c2.1-4.5,5.4-9.7,8.4-10.4
		c0.2,0,0.3,0,0.5,0c3.8,0,5.3,5.6,8.3,7.1c0.6,0.3,1.1,0.6,1.7,0.6c1,0,2.3-0.9,4.7-3.9c0.4-0.3,0.8-0.4,1.1-0.4
		c0.9,0,1.3,1.1,1.3,1.9c0,0.4-0.1,0.7-0.3,0.8c-2.7,2.3-4.6,3-6.1,3c-1.2,0-2.3-0.4-3.3-0.9c-3.9-1.6-6-5.9-7.8-5.9
		c-3.4,0-5.6,16.2-10.2,18c-0.2,0-0.4,0.1-0.6,0.1c-1.1,0-1.9-0.7-2.2-2.3c0-0.1,0-0.2,0-0.3c0-0.2,0-0.4,0-0.6
		c0-5.3,5.2-18.9,5.1-19.1C459.9,32.2,460.8,31.8,461.7,31.8z"/>
	<path class="st0" d="M497.2,32.9c0,1.1-1,1.9-2.1,1.9c-0.5,0-1-0.1-1.5-0.5c-0.2-0.2-0.5-0.2-0.7-0.2c-3.6,0-10.8,13-10.8,15.3
		c0,0.2,0.1,0.3,0.2,0.3c0.1,0,0.3-0.1,0.5-0.2c3.5-2.6,9.6-11.6,11.4-13.4c0.4-0.4,0.9-0.6,1.4-0.6c1.1,0,2.2,0.9,2.2,2
		c0,0.3-0.1,0.5-0.2,0.8c-2.1,4.2-2.8,7.6-2.8,9.7c0,1.7,0.4,2.6,1.1,2.6c0,0,0.1,0,0.1,0c2.6-0.3,9.2-4,13-10.7
		c0.4-0.6,0.8-0.9,1.3-0.9c0.7,0,1.4,0.7,1.4,1.7c0,0.5-0.2,1.1-0.7,1.5c-3.1,3.1-9.8,10.2-14.8,10.2c-0.4,0-0.8,0-1.2-0.1
		c-1.9-0.5-3.4-1.8-3.4-5c0-1.1,0.2-2.4,0.6-4c-2.4,3-6.7,9.1-10.5,9.1c-0.6,0-1.1-0.1-1.6-0.4c-1.2-0.7-1.7-1.8-1.7-3.3
		c0-6.4,9.4-18.4,15.6-18.4c1.1,0,2.1,0.4,2.9,1.2C497,31.9,497.2,32.4,497.2,32.9z"/>
	<path class="st0" d="M527.3,56.1c-0.8,0-1.6-0.2-2.2-0.5c-1.3-0.8-1.9-2.1-1.9-3.7c0-5.7,6.6-15,11.3-17.6c2.3-1.3,4-1.8,5.2-1.8
		c0.1,0,0.2,0,0.3,0c4.8-15.6,11.4-29.7,15.6-31.6c0.1,0,0.1,0,0.2-0.1c0.4-0.2,0.8-0.2,1.2-0.2c0.7,0,1.3,0.3,1.9,0.8
		c0.6,0.6,0.9,1.5,0.9,2.7c0,0.9-0.2,2-0.5,3.3c-2.1,7.6-12.2,27.7-20.7,39.5c-1.8,9.2-6.1,23.5-6.1,30.5c0,1.5,0.2,2.7,0.7,3.5
		c0.1,0.2,0.1,0.4,0.1,0.6c0,0.9-0.6,1.7-1.4,2c-0.2,0.1-0.4,0.1-0.6,0.1c-0.9,0-1.7-0.6-2-1.4c-0.2-0.6-0.3-1.3-0.3-2.1
		c0-6.6,4.9-20.9,6.5-29.1c-2.1,2.5-4,4.2-5.6,4.8l0,0C529,55.9,528.1,56.1,527.3,56.1z M538.2,38.3c0-0.8-0.4-1.1-1-1.1
		c-2.3,0-7.7,4.5-9.8,10.5c-0.3,1-0.5,1.6-0.5,2.1c0,1.5,1.4,0.9,2.6,1.4c2.4-1,4.8-3.2,7.1-6.1c0.5-2,1-4,1.5-6.1
		C538.1,38.8,538.2,38.5,538.2,38.3z M541.8,33.3c0.5,0.6,0.8,1.5,0.8,2.5c5.6-10.2,10.3-22.9,12.9-30.1
		C550.8,9.1,545.6,20.7,541.8,33.3z"/>
	<path class="st0" d="M555.1,33.4c1.1,0,2.1,0.9,2.1,2.3c0,0.5-0.1,1-0.4,1.6c-1.3,2.7-4,8.9-4,11.9c0,1.1,0.3,1.8,1.1,1.8
		c0,0,0,0,0.1,0c2.6,0,10-14.1,10.4-16.2c0.4-1,1-1.4,1.7-1.4c1.1,0,2.2,1.1,2.2,2.3c0,0.3,0,0.5-0.2,0.8c-1,1.5-2.9,5.4-2.9,8.2
		c0,1.7,0.7,3,2.6,3.2c0.1,0,0.2,0,0.3,0c2.9,0,8.4-3.1,11.1-7.9c0.4-0.7,1-1,1.5-1c0.7,0,1.3,0.5,1.3,1.3c0,0.5-0.3,1.2-1.1,1.9
		c-3.1,2.7-8.9,7.9-13.1,7.9c-2.5,0-4.5-1.8-5.1-7.2c-3.4,4.4-7.5,10-9.8,10.6c-0.3,0.1-0.5,0.1-0.7,0.1c-1.9,0-3-2.5-3-6
		c0-3.8,1.2-8.8,4-13.1C553.8,33.7,554.5,33.4,555.1,33.4z"/>
	<path class="st0" d="M583.3,31.8c1.3,0,2.6,0.8,2.6,2c0,0.2,0,0.4-0.1,0.7c-0.8-0.1-3.7,5.9-5.2,11.1c2.1-4.5,5.4-9.7,8.4-10.4
		c0.2,0,0.3,0,0.5,0c3.8,0,5.3,5.6,8.3,7.1c0.6,0.3,1.1,0.6,1.7,0.6c1,0,2.3-0.9,4.7-3.9c0.4-0.3,0.8-0.4,1.1-0.4
		c0.9,0,1.3,1.1,1.3,1.9c0,0.4-0.1,0.7-0.3,0.8c-2.7,2.3-4.6,3-6.1,3c-1.2,0-2.3-0.4-3.3-0.9c-3.9-1.6-6-5.9-7.8-5.9
		c-3.4,0-5.6,16.2-10.2,18c-0.2,0-0.4,0.1-0.6,0.1c-1.1,0-1.9-0.7-2.2-2.3c0-0.1,0-0.2,0-0.3c0-0.2,0-0.4,0-0.6
		c0-5.3,5.2-18.9,5.1-19.1C581.4,32.2,582.3,31.8,583.3,31.8z"/>
	<path class="st0" d="M618.8,32.9c0,1.1-1,1.9-2.1,1.9c-0.5,0-1-0.1-1.5-0.5c-0.2-0.2-0.5-0.2-0.7-0.2c-3.6,0-10.8,13-10.8,15.3
		c0,0.2,0.1,0.3,0.2,0.3c0.1,0,0.3-0.1,0.5-0.2c3.5-2.6,9.6-11.6,11.4-13.4c0.4-0.4,0.9-0.6,1.4-0.6c1.1,0,2.2,0.9,2.2,2
		c0,0.3-0.1,0.5-0.2,0.8c-2.1,4.2-2.8,7.6-2.8,9.7c0,1.7,0.4,2.6,1.1,2.6c0,0,0.1,0,0.1,0c2.6-0.3,9.2-4,13-10.7
		c0.4-0.6,0.8-0.9,1.3-0.9c0.7,0,1.4,0.7,1.4,1.7c0,0.5-0.2,1.1-0.7,1.5c-3.1,3.1-9.8,10.2-14.8,10.2c-0.4,0-0.8,0-1.2-0.1
		c-1.9-0.5-3.4-1.8-3.4-5c0-1.1,0.2-2.4,0.6-4c-2.4,3-6.7,9.1-10.5,9.1c-0.6,0-1.1-0.1-1.6-0.4c-1.2-0.7-1.7-1.8-1.7-3.3
		c0-6.4,9.4-18.4,15.6-18.4c1.1,0,2.1,0.4,2.9,1.2C618.6,31.9,618.8,32.4,618.8,32.9z"/>
	<path class="st0" d="M634.7,31.8c1.3,0,2.6,0.8,2.6,2c0,0.2,0,0.4-0.1,0.7c-0.8-0.1-3.7,5.9-5.2,11.1c2.1-4.5,5.4-9.7,8.4-10.4
		c0.2,0,0.3,0,0.5,0c3.8,0,5.3,5.6,8.3,7.1c0.6,0.3,1.1,0.6,1.7,0.6c1,0,2.3-0.9,4.7-3.9c0.4-0.3,0.8-0.4,1.1-0.4
		c0.9,0,1.3,1.1,1.3,1.9c0,0.4-0.1,0.7-0.3,0.8c-2.7,2.3-4.6,3-6.1,3c-1.2,0-2.3-0.4-3.3-0.9c-3.9-1.6-6-5.9-7.8-5.9
		c-3.4,0-5.6,16.2-10.2,18c-0.2,0-0.4,0.1-0.6,0.1c-1.1,0-1.9-0.7-2.2-2.3c0-0.1,0-0.2,0-0.3c0-0.2,0-0.4,0-0.6
		c0-5.3,5.2-18.9,5.1-19.1C632.9,32.2,633.8,31.8,634.7,31.8z"/>
</g>
</svg>
